<?xml version="1.0" standalone="no"?>
<!DOCTYPE svg PUBLIC "-//W3C//DTD SVG 20010904//EN"
  "http://www.w3.org/TR/2001/REC-SVG-20010904/DTD/svg10.dtd">
<svg version="1.0" xmlns="http://www.w3.org/2000/svg"
     width="1024.000000pt" height="1024.000000pt" viewBox="0 0 1024.000000 1024.000000"
     preserveAspectRatio="xMidYMid meet">
  <metadata>
    Created by potrace 1.14, written by Peter Selinger 2001-2017
  </metadata>
  <g transform="translate(0.000000,1024.000000) scale(0.100000,-0.100000)"
     fill="#000000" stroke="none">
    <path d="M4420 9182 c-30 -5 -50 -20 -50 -39 0 -7 488 -502 1083 -1098 l1084
-1084 0 -1686 0 -1687 1264 -1264 c910 -910 1270 -1264 1286 -1264 12 0 25 5
29 12 9 15 11 3426 2 3441 -4 7 -280 285 -614 619 l-606 608 17 26 c9 14 284
293 611 620 327 327 594 602 595 611 0 10 1 501 1 1091 1 770 -2 1076 -10
1084 -8 8 -656 11 -2339 12 -1280 1 -2339 -1 -2353 -2z"/>
    <path d="M3940 9139 c-63 -21 -124 -43 -135 -48 -11 -5 -63 -26 -115 -47 -678
-269 -1315 -768 -1771 -1384 -69 -94 -188 -276 -242 -370 -92 -161 -237 -455
-237 -480 0 -6 -4 -18 -10 -28 -36 -66 -143 -380 -175 -512 0 -3 -13 -54 -28
-115 -14 -60 -28 -121 -31 -135 -4 -24 -15 -85 -22 -125 -17 -88 -42 -317 -49
-435 -51 -914 184 -1786 688 -2551 53 -82 195 -273 242 -328 207 -243 360
-395 581 -581 48 -40 237 -182 306 -228 218 -148 443 -270 718 -390 146 -64
498 -179 630 -206 14 -3 57 -13 95 -21 86 -20 226 -45 280 -50 22 -3 51 -7 65
-9 14 -3 57 -8 95 -12 39 -3 81 -9 95 -12 14 -3 874 -7 1911 -9 1665 -3 1887
-2 1898 11 7 8 10 23 7 33 -3 10 -486 498 -1073 1085 l-1068 1067 -760 4
c-418 2 -770 6 -781 9 -12 4 -39 9 -60 12 -256 39 -547 148 -759 285 -156 101
-355 275 -473 416 -281 337 -446 793 -445 1231 1 92 10 226 18 254 2 8 6 33 9
55 2 22 10 63 16 90 7 28 14 60 16 73 3 12 16 59 30 105 142 452 458 851 866
1091 239 140 468 218 768 262 25 4 250 7 500 9 250 1 465 5 478 9 14 5 22 15
22 29 0 15 -288 309 -977 999 -538 537 -984 979 -993 981 -8 2 -67 -13 -130
-34z"/>
  </g>
</svg>
